{"title":"Hole.In.One.2010.DVDRiP.XViD.OPTIONAL_MULTI_SUB-Zen_Bud","uid":5880632,"size":793833182,"categoryP":"video","categoryS":"movies","magnet":"?xt=urn:btih:4e1aceef796e69b6897b1df02272ede074526101&amp;dn=Hole.In.One.2010.DVDRiP.XViD.OPTIONAL_MULTI_SUB-Zen_Bud&amp;tr=udp%3A%2F%2Ftracker.openbittorrent.com%3A80&amp;tr=udp%3A%2F%2Fopen.demonii.com%3A1337&amp;tr=udp%3A%2F%2Ftracker.coppersurfer.tk%3A6969&amp;tr=udp%3A%2F%2Fexodus.desync.com%3A6969","seeders":0,"leechers":1,"uploader":"Zen_Bud","files":-1,"time":1286823088,"description":"\n********* Hole.In.One.2010.DVDRiP.XViD.OPTIONAL_MULTI_SUB-Zen_Bud *******\n\nFormat                           : AVI\nFile size                        : 706 MiB\nDuration                         : 1h 35mn\nOverall bit rate                 : 1 029 Kbps\n\nVideo\n\nFormat                           : MPEG-4 Visual\nCodec ID/Hint                    : XviD\nDuration                         : 1h 35mn\nBit rate                         : 888 Kbps\nWidth                            : 720 pixels\nHeight                           : 576 pixels\nDisplay aspect ratio             : 16:9\nStream size                      : 609 MiB (86%)\nWriting library                  : XviD 1.1.2 (UTC 2006-11-01)\n\nAudio\n\nFormat                           : MPEG Audio\nCodec ID/Hint                    : MP3\nDuration                         : 1h 35mn\nBit rate                         : 128 Kbps\nChannel(s)                       : 2 channels\nSampling rate                    : 48.0 KHz\nStream size                      : 87.8 MiB (12%)\nLanguage                         : English\n\nText #1\nLanguage                         : English\n\nText #2\nLanguage                         : Swedish\n\nText #3\nLanguage                         : Spanish\n\nText #4\nLanguage                         : Danish\n\nText #5\nLanguage                         : Dutch\n\nText #6\nLanguage                         : Finnish\n\nText #7\nLanguage                         : Norwegian\n\nText #8\nLanguage                         : Portuguese\n\nText #9\nLanguage                         : Swedish\n\n","torrent":{"xt":"urn:btih:4e1aceef796e69b6897b1df02272ede074526101","amp;dn":"Hole.In.One.2010.DVDRiP.XViD.OPTIONAL_MULTI_SUB-Zen_Bud","amp;tr":["udp%3A%2F%2Ftracker.openbittorrent.com%3A80","udp%3A%2F%2Fopen.demonii.com%3A1337","udp%3A%2F%2Ftracker.coppersurfer.tk%3A6969","udp%3A%2F%2Fexodus.desync.com%3A6969"],"infoHash":"4e1aceef796e69b6897b1df02272ede074526101","infoHashBuffer":{"type":"Buffer","data":[78,26,206,239,121,110,105,182,137,123,29,240,34,114,237,224,116,82,97,1]},"announce":[],"urlList":[]}}